<?xml version="1.0" standalone="no"?>
<!DOCTYPE svg PUBLIC "-//W3C//DTD SVG 20010904//EN"
 "http://www.w3.org/TR/2001/REC-SVG-20010904/DTD/svg10.dtd">
<svg version="1.0" xmlns="http://www.w3.org/2000/svg"
 width="650.000000pt" height="650.000000pt" viewBox="0 0 650.000000 650.000000"
 preserveAspectRatio="xMidYMid meet">
<metadata>
Created by potrace 1.14, written by Peter Selinger 2001-2017
</metadata>
<g transform="translate(0.000000,650.000000) scale(0.100000,-0.100000)"
fill="#000000" stroke="none">
<path d="M2895 6489 c-33 -5 -109 -16 -170 -25 -298 -45 -632 -152 -926 -299
-484 -240 -904 -603 -1226 -1060 -297 -423 -503 -971 -558 -1485 -20 -185 -20
-599 0 -755 87 -673 349 -1261 784 -1760 33 -38 61 -75 61 -82 0 -16 -79 -108
-201 -233 -56 -58 -123 -130 -149 -161 -89 -107 -280 -445 -340 -604 l-10 -25
994 0 993 0 28 53 c58 106 117 187 191 256 72 69 95 79 93 43 0 -14 -2 -14 -8
2 -6 17 -16 11 -79 -49 -40 -37 -72 -71 -72 -75 0 -5 14 -1 31 7 22 11 48 14
89 10 l58 -5 -9 31 c-5 18 -9 39 -8 47 1 16 36 -118 63 -242 l17 -77 487 0
c567 -1 692 10 997 85 675 167 1278 543 1722 1074 409 488 671 1099 738 1720
20 184 20 598 0 755 -52 399 -151 728 -324 1073 -164 328 -347 579 -615 848
-501 501 -1113 807 -1841 921 -117 18 -713 27 -810 12z m795 -58 c363 -53 657
-144 975 -301 334 -165 597 -353 855 -610 257 -258 445 -521 610 -855 160
-324 251 -623 307 -1010 25 -170 25 -640 0 -810 -56 -387 -147 -686 -307
-1010 -165 -334 -353 -597 -610 -855 -258 -257 -521 -445 -855 -610 -318 -157
-614 -248 -975 -301 -232 -34 -748 -36 -780 -3 -17 17 -34 231 -34 429 -1 179
1 209 22 285 30 108 65 196 107 268 94 158 133 250 175 408 43 167 51 247 49
488 l-2 231 31 105 c60 203 61 239 16 383 -14 46 -26 111 -28 160 -3 61 -2 68
3 27 11 -87 25 -34 18 68 -7 108 -19 146 -28 87 -11 -73 -9 218 2 310 14 116
33 165 103 264 78 110 89 139 76 198 -13 55 -34 93 -53 93 -7 0 -35 -14 -61
-31 -27 -16 -56 -28 -65 -26 -11 3 -9 5 7 6 21 1 28 11 17 23 -8 8 -108 -20
-115 -33 -4 -6 -9 34 -12 88 -5 81 -11 111 -36 165 -70 155 -126 184 -182 93
-12 -20 -42 -59 -66 -88 -25 -28 -68 -85 -96 -127 -75 -110 -94 -127 -191
-176 -116 -59 -154 -95 -227 -219 -34 -58 -64 -105 -67 -105 -2 0 -1 5 3 12 4
7 3 8 -5 4 -6 -4 -9 -12 -5 -17 3 -6 -10 -36 -29 -67 -19 -31 -48 -84 -65
-117 -34 -68 -53 -87 -135 -136 -33 -19 -65 -46 -73 -61 -13 -25 -13 -32 1
-59 16 -30 81 -68 118 -69 19 0 22 -17 6 -40 -8 -12 -9 -11 -5 6 5 17 0 23
-31 32 -20 6 -38 10 -40 9 -1 -2 -7 -52 -13 -112 -15 -166 -62 -312 -142 -448
-18 -30 -23 -45 -13 -37 10 8 -5 -20 -32 -61 -27 -42 -60 -104 -72 -137 -13
-34 -26 -60 -30 -57 -4 2 -24 -31 -45 -73 -21 -42 -54 -103 -73 -135 -19 -31
-33 -65 -30 -75 3 -13 8 -10 23 16 32 56 46 70 24 24 -31 -64 -89 -122 -218
-219 -149 -112 -208 -172 -257 -263 -27 -51 -67 -101 -126 -160 -47 -47 -95
-98 -107 -115 -12 -16 -21 -25 -20 -19 2 7 -24 42 -57 80 -344 392 -601 904
-715 1431 -80 366 -91 810 -30 1175 112 680 424 1291 900 1768 258 257 521
445 855 610 370 183 746 286 1175 324 122 11 550 -4 680 -23z m-480 -2628 c-8
-3 -28 -12 -45 -20 l-30 -14 25 20 c14 11 34 20 45 20 14 0 16 -2 5 -6z
m-1149 -980 c-11 -21 -20 -35 -21 -31 0 12 33 78 38 74 2 -2 -6 -21 -17 -43z
m-41 -109 c-10 -33 -24 -88 -30 -122 -7 -35 -15 -61 -17 -58 -3 2 1 31 7 63
15 71 50 186 55 181 2 -2 -4 -31 -15 -64z m-100 -288 c-29 -36 -54 -66 -57
-66 -3 0 -1 6 4 13 6 6 29 36 51 65 23 30 43 61 43 70 1 16 2 15 6 0 2 -10
-17 -44 -47 -82z m-226 -405 c-9 -23 -18 -40 -20 -38 -2 2 4 22 13 45 9 23 18
40 20 38 2 -2 -4 -22 -13 -45z m-43 -98 c-11 -21 -20 -35 -21 -31 0 12 33 78
38 74 2 -2 -6 -21 -17 -43z m1266 -1905 c-3 -7 -5 -2 -5 12 0 14 2 19 5 13 2
-7 2 -19 0 -25z"/>
<path d="M3585 5699 c-27 -11 -77 -24 -110 -30 -33 -5 -82 -16 -110 -23 -27
-8 -88 -22 -134 -32 -46 -10 -92 -25 -103 -34 -20 -16 -20 -16 7 -48 15 -18
57 -49 93 -70 61 -34 74 -37 147 -38 178 -3 274 -22 303 -58 9 -13 29 -29 43
-37 14 -8 43 -34 64 -58 36 -39 39 -48 40 -101 0 -50 5 -65 39 -115 57 -81 71
-86 154 -46 59 28 129 40 116 20 -2 -4 0 -10 6 -14 5 -3 10 -21 10 -40 0 -18
7 -40 15 -48 33 -34 299 -33 345 1 35 26 63 113 56 177 -8 80 -22 134 -40 154
-27 30 -228 112 -266 109 -31 -3 -36 1 -58 39 -14 25 -56 69 -105 108 -45 36
-106 93 -135 128 l-52 64 -83 6 c-132 11 -189 7 -242 -14z"/>
<path d="M1525 5538 c-16 -6 -58 -37 -93 -70 -35 -32 -90 -72 -124 -89 -102
-52 -199 -174 -184 -233 5 -20 14 -25 48 -28 24 -2 59 -1 78 2 30 4 39 13 61
56 14 28 46 78 72 112 45 58 51 62 155 102 59 23 114 48 123 56 8 8 27 14 42
14 25 0 57 22 57 40 0 5 -13 18 -29 29 -23 17 -43 21 -103 20 -40 0 -86 -5
-103 -11z"/>
<path d="M2709 3912 c-13 -15 -53 -53 -89 -86 -53 -48 -58 -55 -30 -41 59 30
89 54 121 101 35 52 35 66 -2 26z"/>
<path d="M5582 3802 c-10 -10 -29 -58 -41 -106 -13 -53 -44 -131 -78 -198 -56
-108 -57 -114 -58 -192 0 -71 3 -85 25 -116 27 -37 30 -74 15 -176 -11 -81 5
-116 70 -150 53 -28 54 -28 90 -11 55 26 115 22 158 -10 20 -16 56 -40 81 -56
42 -26 48 -27 123 -20 78 8 78 8 81 38 2 23 -11 52 -55 120 -53 82 -58 94 -57
145 0 66 18 102 84 175 56 61 80 103 80 137 0 28 -78 159 -123 206 -18 18 -61
53 -97 78 -36 24 -101 69 -145 99 -85 59 -122 68 -153 37z"/>
<path d="M3315 3520 c-39 -61 -40 -68 -12 -63 19 4 26 14 35 51 6 26 9 49 7
50 -2 2 -15 -15 -30 -38z"/>
<path d="M2156 3278 c-62 -98 -77 -135 -37 -92 17 18 114 194 106 194 -2 0
-33 -46 -69 -102z"/>
<path d="M4783 2942 c-26 -30 -58 -55 -87 -67 -51 -21 -62 -39 -46 -79 5 -15
10 -40 10 -55 0 -15 7 -51 15 -79 20 -65 46 -80 152 -88 100 -7 137 -19 180
-57 l35 -31 -7 -87 c-6 -75 -4 -93 13 -132 29 -66 56 -80 146 -75 52 2 80 8
93 20 30 27 134 239 139 283 3 23 -1 51 -8 65 -21 39 -110 95 -200 124 -75 25
-90 27 -173 21 l-91 -7 -27 32 c-25 29 -27 39 -27 116 0 104 -17 143 -61 144
-9 0 -34 -22 -56 -48z"/>
<path d="M2259 178 c-6 -12 -7 -24 -2 -29 7 -7 226 -69 246 -69 10 0 9 38 -2
44 -4 3 -59 21 -120 39 -109 34 -112 34 -122 15z"/>
</g>
</svg>
