<?xml version="1.0" standalone="no"?>
<!DOCTYPE svg PUBLIC "-//W3C//DTD SVG 20010904//EN"
 "http://www.w3.org/TR/2001/REC-SVG-20010904/DTD/svg10.dtd">
<svg version="1.0" xmlns="http://www.w3.org/2000/svg"
 width="958.000000pt" height="958.000000pt" viewBox="0 0 958.000000 958.000000"
 preserveAspectRatio="xMidYMid meet">
<metadata>
Created by potrace 1.14, written by Peter Selinger 2001-2017
</metadata>
<g transform="translate(0.000000,958.000000) scale(0.100000,-0.100000)"
fill="#000000" stroke="none">
<path d="M4515 9569 c-1069 -72 -2031 -459 -2834 -1142 -136 -116 -432 -413
-540 -542 -488 -586 -815 -1224 -995 -1943 -111 -446 -160 -932 -137 -1360 31
-569 133 -1046 328 -1542 327 -831 884 -1557 1608 -2096 326 -242 712 -456
1095 -607 932 -367 1946 -432 2920 -187 1582 398 2858 1587 3374 3142 223 672
292 1366 206 2074 -159 1306 -842 2480 -1905 3270 -709 527 -1560 848 -2450
924 -179 15 -511 20 -670 9z m811 -718 c1558 -214 2846 -1272 3342 -2746 142
-422 200 -763 209 -1226 7 -383 -11 -593 -78 -924 -191 -936 -727 -1800 -1482
-2388 -434 -339 -957 -601 -1452 -727 l-110 -28 -3 28 c-2 16 6 66 17 112 37
158 53 273 56 408 2 125 5 143 37 235 90 258 199 476 295 591 142 170 203 390
189 691 -17 398 -18 476 -7 551 34 214 183 698 270 869 27 54 78 136 113 183
73 99 146 219 246 406 184 346 430 623 648 730 59 28 98 57 154 113 164 166
224 350 186 569 -18 106 -41 158 -86 196 -37 31 -33 30 -96 11 -89 -27 -116
-21 -193 47 -63 55 -75 51 -100 -31 -16 -52 -30 -77 -56 -100 -41 -35 -56 -38
-80 -14 -23 22 -16 57 34 182 80 198 112 372 91 498 -27 168 -130 452 -191
526 -18 22 -39 37 -52 37 -29 0 -136 -82 -369 -281 -456 -392 -998 -792 -1231
-910 l-82 -41 -130 8 c-222 13 -285 11 -350 -10 -89 -29 -338 -159 -520 -271
-434 -267 -498 -291 -836 -315 -377 -26 -570 -74 -725 -180 -23 -16 -54 -44
-69 -62 -24 -29 -27 -38 -22 -85 12 -119 101 -246 351 -501 163 -166 169 -173
157 -198 -6 -15 -51 -90 -100 -168 -100 -160 -163 -282 -220 -424 -61 -153
-122 -250 -257 -408 -194 -229 -422 -591 -606 -961 -127 -257 -137 -269 -339
-402 -113 -75 -286 -171 -308 -171 -14 0 -112 130 -204 270 -349 534 -558
1106 -644 1765 -22 175 -26 766 -5 935 82 671 293 1255 650 1800 498 761 1250
1342 2111 1629 328 110 592 164 996 205 22 2 189 2 370 1 266 -2 359 -7 481
-24z"/>
</g>
</svg>
